# xmcd CD database file
#
# Track frame offsets:
#	150
#	17263
#	34529
#	55705
#
# Disc length: 973 seconds
#
# Revision: 0
# Processed by: cddbd v1.5.1PL0 Copyright (c) Steve Scherf et al.
# Submitted via: CDex 1.40Release
#
DISCID=1e03cb04
DTITLE=GLAY  - 天使のわけまえ／ピーク果てしなく ソウル限りなく（北海道版）
DYEAR=1900
DGENRE=Techno
TTITLE0=天使のわけまえ
TTITLE1=ピーク果てしなく ソウル限りなく
TTITLE2=BEAUTIFUL DREAMER（ライブ 北海道厚生年金会館〜2004．3．5）
TTITLE3=coyote，colored darkness（ライブ 北海道厚生年金会館〜2004．3．5）
EXTD=
EXTT0=
EXTT1=
EXTT2=
EXTT3=
PLAYORDER=
